<svg width="13" height="12" viewBox="0 0 13 12" fill="none" xmlns="http://www.w3.org/2000/svg">
<path d="M12.42 5.62019C12.3724 5.49743 12.301 5.38529 12.21 5.29019L7.21 0.290185C7.11676 0.196947 7.00607 0.122986 6.88425 0.072526C6.76243 0.0220657 6.63186 -0.00390625 6.5 -0.00390625C6.2337 -0.00390625 5.9783 0.101882 5.79 0.290185C5.69676 0.383424 5.6228 0.494114 5.57234 0.615936C5.52188 0.737758 5.49591 0.868326 5.49591 1.00019C5.49591 1.26649 5.6017 1.52188 5.79 1.71019L9.09 5.00019H1.5C1.23478 5.00019 0.98043 5.10554 0.792893 5.29308C0.605357 5.48062 0.5 5.73497 0.5 6.00019C0.5 6.2654 0.605357 6.51976 0.792893 6.70729C0.98043 6.89483 1.23478 7.00019 1.5 7.00019H9.09L5.79 10.2902C5.69627 10.3831 5.62188 10.4937 5.57111 10.6156C5.52034 10.7375 5.4942 10.8682 5.4942 11.0002C5.4942 11.1322 5.52034 11.2629 5.57111 11.3848C5.62188 11.5066 5.69627 11.6172 5.79 11.7102C5.88296 11.8039 5.99356 11.8783 6.11542 11.9291C6.23728 11.9798 6.36799 12.006 6.5 12.006C6.63201 12.006 6.76272 11.9798 6.88458 11.9291C7.00644 11.8783 7.11704 11.8039 7.21 11.7102L12.21 6.71019C12.301 6.61508 12.3724 6.50294 12.42 6.38019C12.52 6.13672 12.52 5.86365 12.42 5.62019Z" fill="url(#paint0_linear_131_107)"/>
<defs>
<linearGradient id="paint0_linear_131_107" x1="0.5" y1="6.00104" x2="12.495" y2="6.00104" gradientUnits="userSpaceOnUse">
<stop stop-color="#B16DEA"/>
<stop offset="0.545" stop-color="#FF6268"/>
<stop offset="1" stop-color="#FF9E4E"/>
</linearGradient>
</defs>
</svg>
