<svg width="20" height="20" viewBox="0 0 20 20" fill="none" xmlns="http://www.w3.org/2000/svg">
<path d="M3.81529 0.100368C4.60629 -0.0126323 5.71529 0.245368 7.14829 1.06637L7.42029 1.22737L7.58029 1.32737L7.97729 1.24437C9.49109 0.951855 11.0442 0.924785 12.5673 1.16437L13.0233 1.24437L13.4193 1.32737L13.5803 1.22737C14.9653 0.387368 16.0673 0.0573678 16.9023 0.0793678L17.0663 0.0873677L17.2133 0.104368L17.2893 0.118368L17.3393 0.129368L17.4833 0.176368C17.7191 0.273824 17.9087 0.457702 18.0133 0.690368C18.4225 1.60207 18.5603 2.61237 18.4103 3.60037L18.3633 3.86737L18.3173 4.06337L18.4403 4.22637C19.0143 5.02137 19.3703 5.95437 19.4703 6.93337L19.4933 7.22837L19.5003 7.50037C19.5003 11.3554 17.8413 13.3834 14.8563 14.1804L14.6113 14.2414L14.4793 14.2704L14.4933 14.4314L14.5013 14.5884L14.5053 14.9534L14.5033 15.1664L14.5003 19.0004C14.5003 19.2453 14.4103 19.4817 14.2476 19.6647C14.0848 19.8478 13.8605 19.9647 13.6173 19.9934L13.5003 20.0004H7.50029C7.25536 20.0003 7.01896 19.9104 6.83592 19.7477C6.65289 19.5849 6.53595 19.3606 6.50729 19.1174L6.50029 19.0004V18.2664C4.68229 18.5264 3.47029 17.8424 2.39029 16.3884L1.85529 15.6224C1.57529 15.2264 1.40029 15.0434 1.26629 14.9784L1.21829 14.9594C0.970705 14.8789 0.764252 14.7051 0.642812 14.4748C0.521372 14.2445 0.49452 13.976 0.567964 13.7262C0.641407 13.4765 0.809355 13.2652 1.03611 13.1373C1.26287 13.0094 1.53056 12.975 1.78229 13.0414C2.42429 13.2294 2.85629 13.6094 3.35229 14.2804L3.89029 15.0494C4.65029 16.1284 5.25029 16.5084 6.49929 16.2404L6.50029 15.5624L6.48229 15.3944C6.45276 15.1207 6.44574 14.8451 6.46129 14.5704L6.47829 14.3854L6.49729 14.2654L6.38929 14.2414C3.41329 13.5314 1.68629 11.6684 1.51429 8.10237L1.50429 7.79237L1.50029 7.50037C1.50145 6.41695 1.81686 5.35712 2.40829 4.44937L2.56029 4.22737L2.68229 4.06437L2.63729 3.86837C2.45701 2.98993 2.50696 2.0798 2.78229 1.22637L2.88229 0.944368L2.98829 0.691368C3.09269 0.458887 3.28191 0.275036 3.51729 0.177368L3.66129 0.130368L3.81529 0.100368Z" fill="#333333"/>
</svg>
