<svg width="25" height="24" viewBox="0 0 25 24" fill="none" xmlns="http://www.w3.org/2000/svg">
<path d="M8.14957 20.9098C8.11957 20.9098 8.07957 20.9298 8.04957 20.9298C6.10957 19.9698 4.52957 18.3798 3.55957 16.4398C3.55957 16.4098 3.57957 16.3698 3.57957 16.3398C4.79957 16.6998 6.05957 16.9698 7.30957 17.1798C7.52957 18.4398 7.78957 19.6898 8.14957 20.9098Z" fill="#333333"/>
<path d="M21.44 16.4498C20.45 18.4398 18.8 20.0498 16.79 21.0198C17.17 19.7498 17.49 18.4698 17.7 17.1798C18.96 16.9698 20.2 16.6998 21.42 16.3398C21.41 16.3798 21.44 16.4198 21.44 16.4498Z" fill="#333333"/>
<path d="M21.52 7.71047C20.26 7.33047 18.99 7.02047 17.7 6.80047C17.49 5.51047 17.18 4.23047 16.79 2.98047C18.86 3.97047 20.53 5.64047 21.52 7.71047Z" fill="#333333"/>
<path d="M8.15047 3.08957C7.79047 4.30957 7.53047 5.54957 7.32047 6.80957C6.03047 7.00957 4.75047 7.32957 3.48047 7.70957C4.45047 5.69957 6.06047 4.04957 8.05047 3.05957C8.08047 3.05957 8.12047 3.08957 8.15047 3.08957Z" fill="#333333"/>
<path d="M15.9898 6.59C13.6698 6.33 11.3298 6.33 9.00977 6.59C9.25977 5.22 9.57977 3.85 10.0298 2.53C10.0498 2.45 10.0398 2.39 10.0498 2.31C10.8398 2.12 11.6498 2 12.4998 2C13.3398 2 14.1598 2.12 14.9398 2.31C14.9498 2.39 14.9498 2.45 14.9698 2.53C15.4198 3.86 15.7398 5.22 15.9898 6.59Z" fill="#333333"/>
<path d="M7.09 15.4898C5.71 15.2398 4.35 14.9198 3.03 14.4698C2.95 14.4498 2.89 14.4598 2.81 14.4498C2.62 13.6598 2.5 12.8498 2.5 11.9998C2.5 11.1598 2.62 10.3398 2.81 9.55977C2.89 9.54977 2.95 9.54977 3.03 9.52977C4.36 9.08977 5.71 8.75977 7.09 8.50977C6.84 10.8298 6.84 13.1698 7.09 15.4898Z" fill="#333333"/>
<path d="M22.5002 11.9998C22.5002 12.8498 22.3802 13.6598 22.1902 14.4498C22.1102 14.4598 22.0502 14.4498 21.9702 14.4698C20.6402 14.9098 19.2802 15.2398 17.9102 15.4898C18.1702 13.1698 18.1702 10.8298 17.9102 8.50977C19.2802 8.75977 20.6502 9.07977 21.9702 9.52977C22.0502 9.54977 22.1102 9.55977 22.1902 9.55977C22.3802 10.3498 22.5002 11.1598 22.5002 11.9998Z" fill="#333333"/>
<path d="M15.9898 17.4102C15.7398 18.7902 15.4198 20.1502 14.9698 21.4702C14.9498 21.5502 14.9498 21.6102 14.9398 21.6902C14.1598 21.8802 13.3398 22.0002 12.4998 22.0002C11.6498 22.0002 10.8398 21.8802 10.0498 21.6902C10.0398 21.6102 10.0498 21.5502 10.0298 21.4702C9.58977 20.1402 9.25977 18.7902 9.00977 17.4102C10.1698 17.5402 11.3298 17.6302 12.4998 17.6302C13.6698 17.6302 14.8398 17.5402 15.9898 17.4102Z" fill="#333333"/>
<path d="M16.2633 15.7633C13.7622 16.0789 11.2378 16.0789 8.73667 15.7633C8.42111 13.2622 8.42111 10.7378 8.73667 8.23667C11.2378 7.92111 13.7622 7.92111 16.2633 8.23667C16.5789 10.7378 16.5789 13.2622 16.2633 15.7633Z" fill="#333333"/>
</svg>
