<?xml version="1.0" standalone="no"?>
<!DOCTYPE svg PUBLIC "-//W3C//DTD SVG 20010904//EN"
 "http://www.w3.org/TR/2001/REC-SVG-20010904/DTD/svg10.dtd">
<svg version="1.0" xmlns="http://www.w3.org/2000/svg"
 width="500.000000pt" height="500.000000pt" viewBox="0 0 500.000000 500.000000"
 preserveAspectRatio="xMidYMid meet">

<g transform="translate(0.000000,500.000000) scale(0.100000,-0.100000)"
fill="#000000" stroke="none">
<path d="M1750 3591 c0 -5 17 -11 38 -15 46 -7 86 -36 107 -76 22 -42 22
-1197 1 -1238 -23 -45 -61 -73 -105 -79 -23 -3 -41 -10 -41 -14 0 -5 101 -9
225 -9 124 0 225 4 225 9 0 4 -19 11 -42 14 -30 4 -51 16 -77 41 l-36 36 -3
593 c-2 400 0 604 8 629 13 46 60 86 111 94 93 15 24 24 -186 24 -124 0 -225
-4 -225 -9z"/>
<path d="M2520 3590 c0 -5 11 -10 25 -10 29 0 65 -32 65 -58 0 -10 -112 -159
-250 -331 l-250 -314 23 -27 c98 -116 742 -789 798 -834 163 -130 325 -197
483 -199 96 -2 186 9 186 22 0 4 -38 13 -84 20 -47 6 -110 20 -142 31 -122 42
-282 148 -392 259 -115 115 -727 773 -727 781 0 8 374 445 465 543 53 58 118
93 188 103 107 14 33 24 -174 24 -136 0 -214 -4 -214 -10z"/>
</g>
</svg>
