<svg width="70" height="68" viewBox="0 0 70 68" fill="none" xmlns="http://www.w3.org/2000/svg">
<path d="M32.7405 0.018299C32.5921 0.0315913 32.1199 0.0781143 31.695 0.111345C21.8947 0.981989 12.715 6.19256 6.90088 14.2012C3.66334 18.6541 1.59267 23.7051 0.810264 29.0553C0.533724 30.9228 0.5 31.4745 0.5 34.0067C0.5 36.5388 0.533724 37.0905 0.810264 38.958C2.68534 51.7253 11.9056 62.4521 24.4106 66.4265C26.6499 67.1377 29.0106 67.6228 31.695 67.9153C32.7405 68.0282 37.2595 68.0282 38.305 67.9153C42.9387 67.4102 46.8642 66.2803 50.7358 64.333C51.3293 64.0339 51.444 63.9542 51.3631 63.8877C51.3091 63.8478 48.7798 60.5048 45.7446 56.464L40.2273 49.12L33.3138 39.0378C29.5097 33.4949 26.3801 28.9622 26.3531 28.9622C26.3261 28.9556 26.2991 33.4351 26.2856 38.9049C26.2654 48.4819 26.2587 48.8674 26.1372 49.0934C25.9619 49.4191 25.827 49.552 25.5437 49.6982C25.3279 49.8045 25.139 49.8245 24.1205 49.8245H22.9537L22.6434 49.6317C22.4411 49.5055 22.2927 49.3393 22.1915 49.1466L22.0499 48.8475L22.0633 35.522L22.0836 22.1898L22.2927 21.9306C22.4006 21.7911 22.6299 21.6116 22.7918 21.5252C23.0683 21.3923 23.1762 21.379 24.3431 21.379C25.7191 21.379 25.9484 21.4322 26.3059 21.8176C26.407 21.924 30.1504 27.4801 34.629 34.1728C39.1076 40.8655 45.232 50.0039 48.2402 54.4901L53.7035 62.6449L53.9801 62.4654C56.4284 60.8969 59.0185 58.6638 61.0689 56.3377C65.4328 51.3996 68.2455 45.3782 69.1897 38.958C69.4663 37.0905 69.5 36.5388 69.5 34.0067C69.5 31.4745 69.4663 30.9228 69.1897 29.0553C67.3147 16.288 58.0944 5.56118 45.5894 1.58679C43.3839 0.882297 41.0367 0.397129 38.4062 0.104699C37.7587 0.0382375 33.3003 -0.0348701 32.7405 0.018299ZM46.8642 20.5815C47.188 20.741 47.451 21.0467 47.5455 21.3657C47.5994 21.5385 47.6129 25.2338 47.5994 33.5614L47.5792 45.5111L45.4411 42.2811L43.2962 39.0511V30.3646C43.2962 24.7486 43.3232 21.5917 43.3636 21.4388C43.4716 21.0666 43.7076 20.7742 44.0314 20.6014C44.3079 20.4618 44.4091 20.4485 45.468 20.4485C46.4663 20.4485 46.6416 20.4618 46.8642 20.5815Z" fill="black"/>
</svg>
